<?xml version="1.0" encoding="utf-8"?>
<!-- Svg Vector Icons : http://www.onlinewebfonts.com/icon -->
<!DOCTYPE svg PUBLIC "-//W3C//DTD SVG 1.1//EN" "http://www.w3.org/Graphics/SVG/1.1/DTD/svg11.dtd">
<svg version="1.1" xmlns="http://www.w3.org/2000/svg" xmlns:xlink="http://www.w3.org/1999/xlink" x="0px" y="0px" viewBox="0 0 1000 1000" enable-background="new 0 0 1000 1000" xml:space="preserve">
<metadata> Svg Vector Icons : http://www.onlinewebfonts.com/icon </metadata>
<g><path d="M973.1,267.9c-9.3,0-16.9,7.6-16.9,16.9v541.5c0,38.5-31.2,69.8-69.7,69.9c-6.2-0.2-70.1-5.7-70.1-82.5v-692c0-28.4-23.1-51.5-51.6-51.5h-698C35.5,70.1,10,95.6,10,127v641.6c0,89,72.4,161.4,161.4,161.4h714.9h0l0,0l0,0c57.2,0,103.7-46.5,103.7-103.7V284.8C990,275.4,982.4,267.9,973.1,267.9L973.1,267.9z M50.5,763.8V133.5c0-12.5,10.2-22.7,22.7-22.7H759c9.6,0,17.4,7.8,17.4,17.4v692.3c0,26.4,10.1,50.5,26.7,68.6H175.9C106.8,889.2,50.5,833,50.5,763.8L50.5,763.8z M698.5,321.4H128.3c-9.3,0-16.9,7.6-16.9,16.9c0,9.3,7.6,16.9,16.9,16.9h570.2c9.3,0,16.9-7.6,16.9-16.9C715.4,329,707.8,321.4,698.5,321.4L698.5,321.4z M698.5,485.8H128.3c-9.3,0-16.9,7.6-16.9,16.9c0,9.3,7.6,16.9,16.9,16.9h570.2c9.3,0,16.9-7.6,16.9-16.9C715.4,493.4,707.8,485.8,698.5,485.8L698.5,485.8z M698.5,650.3H128.3c-9.3,0-16.9,7.6-16.9,16.9c0,9.3,7.6,16.9,16.9,16.9h570.2c9.3,0,16.9-7.6,16.9-16.9C715.4,657.8,707.8,650.3,698.5,650.3L698.5,650.3z"/></g>
</svg>